<svg id="Layer_1" data-name="Layer 1" xmlns="http://www.w3.org/2000/svg" viewBox="0 0 200 200"><defs><style>.cls-1{fill:#f8d6b8;}.cls-2{fill:#bfa58f;}.cls-3{fill:#fff;}.cls-4{fill:#e3bb9a;}.cls-5{fill:#ffc271;}.cls-6{fill:#c69c6d;}.cls-7{fill:#c1272d;}.cls-8{fill:#eeb770;}.cls-9{fill:#d4145a;}.cls-10{fill:#e0588a;}.cls-11{fill:#fdf5ed;}.cls-12{fill:#83e2e2;}.cls-13{fill:#1a1a1a;}</style></defs><title>clinton</title><path class="cls-1" d="M96.81,41.77H96A50,50,0,0,0,46.85,91.73c0,1.11,0,2.21.11,3.3,0,.47-.08.93-.11,1.4,0,0-3.83,20.87-1.87,28.24-1.56,7-3.52,14.33-1.56,18.09s6.26,20.47,19.17,31,18,14.36,30.9,14.36h5.87c12.9,0,18-3.8,30.9-14.36s17.21-27.32,19.17-31.09,0-11.05-1.56-18c1.59-6-.64-20.91-1.53-26.28A50,50,0,0,0,96.81,41.77"/><path class="cls-2" d="M86.9,136.76c-8.59.59-18.68,4.44-18.76,5.34-.11,1.2,2.33,4,3.11,5,1.37,1.69,3.52,2.58,5.59,3.4,6.71,2.65,13.76,5.21,20.94,5.21.92,0,1.85,0,2.77-.13a7.11,7.11,0,0,0,4.39-1.61c.74-.73,8.37-5.07,9-5.64.36-.35.16-1.11.61-1.33,2.57-1.27,3.76-5,3.76-5s-3.7-2.25-5.42-3.23a7.38,7.38,0,0,0-2.27-.71A60.37,60.37,0,0,0,99,137.08c-2,0-4.06.05-6.1.1H92.6c-.83,0-1.66-.08-2.49-.16s-1.66-.16-2.49-.16a10.67,10.67,0,0,0-1.08.05l.35-.15"/><path class="cls-3" d="M81.66,152.52h0a.5.5,0,0,1,.5-.5h2a.5.5,0,1,1,0,1h-2A.5.5,0,0,1,81.66,152.52Z"/><path class="cls-3" d="M84.67,154.06v-1.22c0-.5.22-.91.5-.91h2c.28,0,.5.41.5.91v.91c0,.5-.22.91-.5.91H84.67Z"/><path class="cls-3" d="M87.69,154v-2.1c0-.5.22-.91.5-.91h3c.28,0,.5.41.5.91v1.83c0,.5-.22.91-.5.91H87.69Z"/><path class="cls-3" d="M101.74,152.52h0a.5.5,0,0,0-.5-.5h-2a.5.5,0,1,0,0,1h2A.5.5,0,0,0,101.74,152.52Z"/><path class="cls-3" d="M98.72,154.06v-1.22c0-.5-.22-.91-.5-.91h-2c-.28,0-.5.41-.5.91v.91c0,.5.22.91.5.91h2.51Z"/><path class="cls-3" d="M95.71,154v-2.1c0-.5-.22-.91-.5-.91h-3c-.28,0-.5.41-.5.91v1.83c0,.5.22.91.5.91h3.51Z"/><path class="cls-4" d="M121.37,59A143,143,0,0,1,142.14,86.6c.09-1.53.16-2.63.16-2.64h0c-4.36-10.74-10-19.35-16.81-22A11.58,11.58,0,0,1,121.37,59m-8.74-8.43s3.62,3.06,8.69,8.38c-2.19-2.31-3.93-5.29-6.18-7.59l-2.51-.79"/><path class="cls-4" d="M50.61,82.36l-.21.84q.1-.38.19-.79v-.06m.34-1.3h0l0,.1,0-.1m18.8-30.21a27,27,0,0,0-7.26,5.94c-4.8,5.74-8,13-10.2,19.71l.17-.14.24-.19c4-9.36,11.42-18.88,17.06-25.32"/><path class="cls-5" d="M79.46,89.42l-.28-.13-.83-.36c-.73-.31-1.79-.73-3.09-1.19-.65-.23-1.36-.47-2.11-.7s-1.56-.47-2.39-.7-1.71-.44-2.59-.63-1.8-.37-2.71-.51c-.46-.08-.91-.15-1.37-.2l-.69-.09-.17,0h-.1l-.35,0-.7,0-.59,0a8.41,8.41,0,0,0-1.21.16c-.41.08-.8.2-1.19.3s-.77.25-1.12.42-.71.3-1,.48-.65.34-1,.52a19.09,19.09,0,0,0-1.6,1.05c-.46.34-.86.65-1.17.92-.63.53-1,.88-1,.88s.26-.4.8-1c.27-.32.6-.71,1-1.13A19.78,19.78,0,0,1,55.46,86c.27-.24.57-.49.89-.72s.65-.48,1-.71.74-.44,1.13-.68.82-.41,1.27-.59a10.32,10.32,0,0,1,1.43-.46L62,82.7l.69-.1.35,0,.43,0,.73,0c.49,0,1,0,1.47-.05,1,0,2,0,2.92,0s1.91.09,2.83.16,1.8.17,2.64.27,1.63.21,2.36.33c1.46.23,2.68.47,3.54.66l1,.23.37.09Z"/><path class="cls-5" d="M101,83.47l.42-.11,1.14-.26c1-.21,2.34-.48,4-.74.82-.13,1.72-.26,2.67-.37s1.95-.21,3-.3,2.11-.14,3.2-.18,2.2-.05,3.3,0c.55,0,1.1,0,1.65.06l.82,0,.49,0,.39.06.78.11.88.2a11.66,11.66,0,0,1,1.61.52c.5.2,1,.44,1.44.66s.89.49,1.28.76.79.52,1.14.81l.52.4.48.41a22.34,22.34,0,0,1,1.62,1.55c.46.48.83.92,1.13,1.28.6.73.9,1.18.9,1.18s-.37-.39-1.09-1c-.36-.3-.8-.66-1.32-1a21.55,21.55,0,0,0-1.81-1.19l-.52-.3-.55-.28c-.37-.2-.77-.37-1.18-.55s-.84-.31-1.27-.47-.89-.26-1.34-.34a9.49,9.49,0,0,0-1.36-.18l-.66,0-.79,0-.4,0h-.12l-.19,0-.77.1c-.52.06-1,.14-1.55.23-1,.16-2.06.37-3.06.58s-2,.46-2.93.71-1.85.52-2.7.79-1.65.53-2.39.79c-1.47.52-2.67,1-3.49,1.34l-.93.4-.31.14Z"/><path class="cls-6" d="M103.69,97.83c2.88-.91,2-4.87,4.49-6.06.69-.33.09-1.36-.6-1a4.55,4.55,0,0,0-2.08,2.64c-.46,1.15-.79,2.87-2.13,3.3C102.65,96.92,103,98.07,103.69,97.83Z"/><path class="cls-6" d="M78.65,100.33h1.51c.5,0,.5-1,0-1H78.65c-.5,0-.5,1,0,1Z"/><path class="cls-6" d="M72.93,90.43c-4.14-1.7-7.87-.73-12.15-.23-.75.09-.76,1.28,0,1.19,4.15-.48,7.79-1.47,11.83.19C73.32,91.87,73.63,90.72,72.93,90.43Z"/><path class="cls-7" d="M118.2,141.78a4.6,4.6,0,0,1,0,.71,10.48,10.48,0,0,1-.33,2,13,13,0,0,1-1.2,3,16.41,16.41,0,0,1-2.51,3.42,20.32,20.32,0,0,1-3.91,3.18,26.32,26.32,0,0,1-5,2.45c-.45.18-.91.33-1.38.48s-.94.3-1.41.41-1,.25-1.44.37l-1.46.3a45.31,45.31,0,0,1-6,.71l-.38,0h-.54l-.72,0-.72,0h-.36l-.4,0-1.58-.13-1.52-.21a28.59,28.59,0,0,1-5.8-1.57,24.86,24.86,0,0,1-5-2.63c-.74-.51-1.42-1.05-2.06-1.6-.31-.28-.61-.57-.91-.84l-.83-.85a21.14,21.14,0,0,1-2.5-3.36,18.64,18.64,0,0,1-1.4-2.86,14.62,14.62,0,0,1-.6-1.94,5.94,5.94,0,0,1-.13-.7,19.21,19.21,0,0,0,1.64,2.09,27.41,27.41,0,0,0,2.08,2.12,26.57,26.57,0,0,0,2.93,2.34l.86.57.92.55c.63.36,1.28.71,2,1A27.51,27.51,0,0,0,83,152.45a33.67,33.67,0,0,0,5,1l1.31.12,1.28.08.32,0h2l.34,0,1.38-.07,1.37-.12c.46,0,.91-.07,1.36-.13s.9-.09,1.34-.16a46.36,46.36,0,0,0,5.13-1,32.05,32.05,0,0,0,4.58-1.5,22.71,22.71,0,0,0,3.8-2,18.49,18.49,0,0,0,2.85-2.33,15.75,15.75,0,0,0,1.86-2.25,13.23,13.23,0,0,0,1-1.67C118.11,142,118.2,141.78,118.2,141.78Z"/><path class="cls-5" d="M53.53,56a18,18,0,0,1-.34,2.58c-.15.81-.37,1.78-.69,2.87s-.72,2.31-1.22,3.61-1.11,2.68-1.84,4.1a47.44,47.44,0,0,1-2.52,4.35,46.84,46.84,0,0,1-3.19,4.35A49.44,49.44,0,0,1,39.92,82a45.9,45.9,0,0,1-4.33,3.64l-1.13.82c-.38.26-.78.51-1.16.76l-1.16.72-1.19.66c-.78.44-1.58.82-2.37,1.17s-1.58.67-2.35,1a22.18,22.18,0,0,1-2.29.73l-1.1.3c-.36.08-.72.16-1.08.23l-1,.19a8.17,8.17,0,0,1-1,.15c-.66.06-1.27.13-1.84.17-1.16.05-2.18,0-3,0A24,24,0,0,1,12.3,92s.82-.55,2.19-1.33c.68-.44,1.49-.92,2.4-1.49s1.91-1.21,2.95-2c.26-.19.54-.35.81-.54l.81-.6c.27-.21.56-.4.84-.6s.56-.43.85-.64c.57-.43,1.16-.86,1.74-1.34l.89-.7c.3-.23.59-.49.89-.73l.9-.74.9-.78c.61-.51,1.21-1,1.81-1.59,1.22-1.07,2.42-2.21,3.62-3.34s2.39-2.31,3.55-3.48c.58-.58,1.17-1.16,1.73-1.75s1.13-1.16,1.69-1.73L47,62.35c1.85-1.89,3.45-3.48,4.61-4.59S53.53,56,53.53,56"/><path class="cls-5" d="M115.35,39.68v.09a2,2,0,0,0,0,.22c0,.22,0,.57,0,1,0,.91.08,2.23.23,3.83a65.3,65.3,0,0,0,2.12,11.68l.47,1.56c.17.51.33,1,.52,1.53.36,1,.75,2,1.16,2.93.21.47.41.93.64,1.37s.43.88.66,1.29.44.83.68,1.2.45.76.68,1.1l.67,1,.65.87c.41.55.82,1,1.13,1.37L126,71.89l-1.39-.76c-.42-.27-1-.58-1.54-1l-.93-.65-1-.78c-.36-.27-.69-.58-1.05-.89s-.72-.65-1.09-1-.74-.72-1.11-1.11-.75-.79-1.12-1.2c-.75-.83-1.48-1.73-2.2-2.66-.36-.46-.7-.95-1.06-1.43s-.69-1-1-1.48c-.66-1-1.31-2-1.91-3s-1.17-2-1.7-3-1-2-1.46-2.92-.84-1.84-1.21-2.68c-.72-1.68-1.26-3.11-1.63-4.14-.18-.52-.32-.93-.42-1.23l-.15-.49Z"/><path class="cls-5" d="M120,12.71l21,7.39a33.17,33.17,0,0,1,8.6,4,29.88,29.88,0,0,1,5.12,5c9.79,11.52,17.91,24.69,22,39.23s4,30.55-2.08,44.4a15.19,15.19,0,0,0-1.71,5.46c-.09,2.84,1.6,5.38,2.68,8,2.26,5.51,1.84,11.86-.18,17.47s-5.52,10.55-9.36,15.11c-4.34,5.15-9.49,10.08-16,11.79-2.16.57-4.45.78-6.4,1.86a39.81,39.81,0,0,0-4.2,3.28,13.48,13.48,0,0,1-13,1.58,61.54,61.54,0,0,0,19.37-31.69c.7-2.85,1.18-5.86.42-8.69-.69-2.58,6.16-7.64,5.92-10.3-2-22.8-11.51-58.69-26.75-64.65-5.78-2.26-7.86-9.84-13.28-12.86-3.72-2.08-8.42-3.59-9.87-7.6a13,13,0,0,1-.43-5.11c.25-5.07.57-10.29,2.76-14.87s6.76-8.4,11.83-8.15l3.53-.66"/><path class="cls-5" d="M172.62,106.07v.07a.33.33,0,0,0,0,.15c0,.17,0,.47.08.84.09.76.27,1.89.57,3.25a41.83,41.83,0,0,0,1.3,4.62c.29.83.61,1.69,1,2.55s.77,1.71,1.21,2.56.92,1.67,1.44,2.45c.25.4.52.78.8,1.16s.56.74.84,1.1a23.47,23.47,0,0,0,1.77,2c.29.31.6.57.9.85s.6.52.89.75c.58.49,1.16.86,1.67,1.22s1,.61,1.39.84l1.27.65-1.44-.09c-.46-.05-1-.13-1.67-.23s-1.38-.26-2.16-.49c-.4-.1-.81-.22-1.23-.37s-.87-.28-1.3-.47a27.21,27.21,0,0,1-2.75-1.25c-.46-.25-.95-.5-1.41-.78s-.95-.56-1.41-.88c-.94-.61-1.85-1.29-2.75-2s-1.76-1.47-2.58-2.24-1.6-1.57-2.33-2.36a52.24,52.24,0,0,1-3.76-4.58c-1-1.41-1.83-2.66-2.38-3.57q-.41-.69-.64-1.11c-.07-.13-.14-.27-.18-.37a.89.89,0,0,0-.06-.11Z"/><path class="cls-3" d="M86.27,147.88h4a1.61,1.61,0,0,0,1.61-1.61v-5.47a1.58,1.58,0,0,0,0-.29,3.37,3.37,0,0,0-3.57-2.84,3.59,3.59,0,0,0-3.48,2.3,1.61,1.61,0,0,0-.12.61v5.69A1.61,1.61,0,0,0,86.27,147.88Z"/><path class="cls-3" d="M81.33,138.81c-.85.23-1.66,2.16-1.8,3a27.37,27.37,0,0,0-.05,3.84,2,2,0,0,0,1.15,1.72,4.67,4.67,0,0,0,1.47.48,4.5,4.5,0,0,0,1.42-.46,2,2,0,0,0,1.15-1.79v-4a2,2,0,0,0-.76-1.55C83.12,139.47,81.92,138.65,81.33,138.81Z"/><path class="cls-3" d="M77.19,139.66c.78-.37,2.46.67,2.46.67v6.52a10.11,10.11,0,0,1-1.69,1c-.35.1-1.2.26-1.45,0C74.9,146.28,75.15,140.65,77.19,139.66Z"/><path class="cls-3" d="M73.18,140.33a21.38,21.38,0,0,0-.72,4.08c0,.55.24,1.83.72,2.09S75.4,146,75.4,146l.88-5.48A1.83,1.83,0,0,0,73.18,140.33Z"/><path class="cls-3" d="M97.45,147.88h-4a1.61,1.61,0,0,1-1.61-1.61v-5.47a1.58,1.58,0,0,1,0-.29,3.37,3.37,0,0,1,3.57-2.84,3.59,3.59,0,0,1,3.48,2.3,1.61,1.61,0,0,1,.12.61v5.69A1.61,1.61,0,0,1,97.45,147.88Z"/><path class="cls-3" d="M102.39,138.81c.85.23,1.66,2.16,1.8,3a27.37,27.37,0,0,1,.05,3.84,2,2,0,0,1-1.15,1.72,4.67,4.67,0,0,1-1.47.48,4.5,4.5,0,0,1-1.42-.46,2,2,0,0,1-1.15-1.79v-4a2,2,0,0,1,.76-1.55C100.6,139.47,101.8,138.65,102.39,138.81Z"/><path class="cls-3" d="M106.61,139.66c-.78-.37-2.37.67-2.37.67v6.52a8.53,8.53,0,0,0,1.6,1c.35.1,1.2.26,1.45,0C108.91,146.28,108.66,140.65,106.61,139.66Z"/><path class="cls-3" d="M110.53,140.33a21.38,21.38,0,0,1,.72,4.08c0,.55-.24,1.83-.72,2.09s-2.21-.55-2.21-.55l-.88-5.48A1.83,1.83,0,0,1,110.53,140.33Z"/><path class="cls-7" d="M67.85,142.69a2.16,2.16,0,0,1,.15-.3,5.4,5.4,0,0,1,.51-.75,8.38,8.38,0,0,1,.95-1,14.28,14.28,0,0,1,1.39-1.13c.53-.38,1.13-.77,1.77-1.15.32-.2.66-.37,1-.56s.7-.36,1.07-.54c.73-.36,1.5-.69,2.29-1l1.2-.45.3-.11.15-.06.18-.06.6-.2,1.2-.41,1.28-.41a13.58,13.58,0,0,1,2.53-.55,8.22,8.22,0,0,1,1.24-.05,9.54,9.54,0,0,1,1.2.08,11.92,11.92,0,0,1,2.18.45,9,9,0,0,1,3,1.54,4,4,0,0,1,.42.37,3.2,3.2,0,0,1,.29.3A3,3,0,0,1,93,137l-.21.36-.32,0-.87.08c-.36,0-.8.1-1.29.16l-1.6.22-1.85.27-1,.14-1.05.11c-.71,0-1.48.07-2.25.07l-1.15.06c-.39,0-.82.1-1.23.15l-.62.09h-.12l-.15,0-.3.06-1.19.22c-.77.18-1.55.32-2.28.51s-1.44.39-2.1.59-1.28.43-1.84.66a15.91,15.91,0,0,0-1.49.7,10.18,10.18,0,0,0-1.08.66,4.82,4.82,0,0,0-.62.51,1.64,1.64,0,0,0-.18.2Z"/><path class="cls-7" d="M118.13,142.1l-.23-.15a7.27,7.27,0,0,0-.73-.38c-.32-.15-.72-.32-1.19-.49s-1-.35-1.59-.53-1.23-.36-1.91-.53-1.4-.35-2.16-.5-1.54-.3-2.32-.47l-1.2-.22-.3-.06-.15,0h-.12l-.62-.09c-.41,0-.84-.14-1.23-.15l-1.15-.06c-.77,0-1.53,0-2.25-.07l-1.05-.11-1-.14-1.85-.27-1.6-.22c-.48-.06-.92-.12-1.29-.16l-.87-.08-.32,0-.21-.36a3,3,0,0,1,.22-.29,3.2,3.2,0,0,1,.29-.3,4,4,0,0,1,.42-.37,9,9,0,0,1,3-1.54,11.91,11.91,0,0,1,2.18-.45,9.54,9.54,0,0,1,1.2-.08,8.22,8.22,0,0,1,1.24.05,13.57,13.57,0,0,1,2.53.55l1.28.41,1.2.41.6.2.18.06.15.05.3.11,1.19.43c.79.3,1.55.61,2.28.94s1.44.65,2.09,1,1.27.67,1.83,1a17.91,17.91,0,0,1,2.57,1.79,7.84,7.84,0,0,1,.64.61,2.87,2.87,0,0,1,.21.25Z"/><path class="cls-5" d="M117.81,12.12c-20-1.85-44.16,6.51-53,9.1S45.11,37,41.58,44.37C38.29,51.25,33,73.66,33,73.66L23.46,95s-7.1,26.28-5.44,35c1.32,6.9,11.3,17.82,14.22,24.21a31.51,31.51,0,0,1,1.91,8.25c2.66,6.59,12.77,9.68,18.4,13.15,2.86,1.43,16.49,6.46,19.4,5.55,0-1.58-21.1-23.6-23-28.53-2.14-5.53-3.77-23.42-3.77-23.42L48,97.34s1.8-25.42,14.45-40.55c4.78-5.72,12.54-9,20.34-11a101.38,101.38,0,0,1,25.75-2.51l12-11.8S137.8,14,117.81,12.12"/><path class="cls-5" d="M103.54,35.38l-2.46,3.71a1.62,1.62,0,0,0-.09.18l-.17.36c-.07.14-.13.24-.21.39q-.46.86-1.3,2.28c-.57.93-1.25,2-2.07,3.28s-1.76,2.59-2.81,4-2.23,3-3.52,4.57c-.63.79-1.33,1.59-2,2.4S87.47,58.22,86.71,59s-1.52,1.63-2.33,2.44-1.62,1.61-2.46,2.41-1.72,1.57-2.58,2.35-1.79,1.52-2.7,2.25c-1.84,1.45-3.71,2.85-5.64,4.1l-1.43.93-1.45.87c-.95.58-1.93,1.09-2.89,1.6a55.81,55.81,0,0,1-5.64,2.56c-.89.38-1.81.66-2.67,1-.43.14-.85.29-1.27.42l-1.25.34c-1.61.48-3.13.73-4.43,1s-2.48.35-3.42.46l-3,.19,2.61-1.34c.81-.47,1.77-1,2.84-1.72s2.23-1.51,3.42-2.51l.92-.73c.31-.25.6-.54.91-.81.61-.56,1.25-1.1,1.85-1.74a48.15,48.15,0,0,0,3.62-4c.58-.73,1.17-1.46,1.72-2.25l.84-1.16.8-1.21c1.07-1.61,2-3.32,3-5,.45-.86.88-1.75,1.3-2.61s.82-1.75,1.18-2.64.74-1.75,1.06-2.63.65-1.74.94-2.6.56-1.71.83-2.53.5-1.64.71-2.45c.44-1.59.81-3.1,1.12-4.5s.55-2.67.74-3.79.32-2.09.42-2.87.15-1.37.16-1.73a2.17,2.17,0,0,0,0-.23l0-.09v-.15l29,4.8"/><path class="cls-5" d="M74.39,32.56a52.25,52.25,0,0,0-9.7,5.6c-2.13,1.53-4.18,3.17-6.17,4.87-1.52,1.3-4.46,4.61-7,4.61A2.64,2.64,0,0,1,49.79,47a.77.77,0,0,0-.49-.18c-.62,0-1.17.76-.57,1.24a4.18,4.18,0,0,0,2.69,1c2.51,0,5-2.25,6.89-3.89A69.93,69.93,0,0,1,73,34.84l1.13-.54c.08-.57.15-1.08.21-1.53l0-.22m13.55-2.88A32.87,32.87,0,0,0,78.68,31l-.57.17,3.93.65a33.27,33.27,0,0,1,6.07-.56A32.46,32.46,0,0,1,106.6,37a.69.69,0,0,0,.39.13.79.79,0,0,0,.37-1.43,34.36,34.36,0,0,0-19.42-6.05"/><path class="cls-5" d="M78.11,31.18a38.06,38.06,0,0,0-3.71,1.38l0,.22c-.06.45-.12,1-.21,1.53A34.39,34.39,0,0,1,82,31.83l-3.93-.65"/><path class="cls-8" d="M118.69,33.35l-.85.84a14.53,14.53,0,0,1,2.93,3.23.58.58,0,0,0,.49.27.57.57,0,0,0,.53-.87,16.1,16.1,0,0,0-3.11-3.47"/><path class="cls-8" d="M114.81,31c-.57,0-.95.81-.34,1.08a15.07,15.07,0,0,1,3.37,2.06l.85-.84a15.63,15.63,0,0,0-3.62-2.25.64.64,0,0,0-.26-.06"/><path class="cls-8" d="M119.8,29.07h-3.51a.51.51,0,1,0,0,1h3.51a.51.51,0,1,0,0-1"/><path class="cls-8" d="M125.32,25.27c-.21.36-.43.72-.66,1.07A8.82,8.82,0,0,1,129.39,29a.53.53,0,0,0,.39.19.62.62,0,0,0,.45-1,10,10,0,0,0-4.91-2.91"/><path class="cls-8" d="M122.94,25a10.17,10.17,0,0,0-2.83.4.6.6,0,0,0,.14,1.17l.18,0a9.1,9.1,0,0,1,2.53-.36,8.64,8.64,0,0,1,1.71.17c.22-.35.45-.7.66-1.07a9.9,9.9,0,0,0-2.38-.29"/><path class="cls-8" d="M129.84,22h-3c-.12.34-.25.67-.4,1h3.38a.51.51,0,1,0,0-1"/><path class="cls-8" d="M126.86,22h-1.54a.51.51,0,1,0,0,1h1.14c.14-.33.28-.67.4-1"/><path class="cls-8" d="M101.77,26.31a28.16,28.16,0,0,0-8.66,1.37.61.61,0,0,0,.13,1.18.62.62,0,0,0,.19,0,26.83,26.83,0,0,1,18.1.52.59.59,0,0,0,.21,0c.56,0,.74-.95.1-1.19a28,28,0,0,0-10.08-1.89"/><path class="cls-8" d="M102.63,17.82a72.08,72.08,0,0,0-11.37,1.43c-.72.12-.46,1.16.21,1.16h.11a69.56,69.56,0,0,1,11-1.4,21.51,21.51,0,0,1,3,.2,18.67,18.67,0,0,1,10.56,5.31.56.56,0,0,0,.4.17.6.6,0,0,0,.44-1,19.88,19.88,0,0,0-10.69-5.57,22.3,22.3,0,0,0-3.6-.28"/><path class="cls-8" d="M112.3,16.37c-.63,0-.86,1-.17,1.16a15.89,15.89,0,0,1,7.07,3.63.59.59,0,0,0,.39.16c.48,0,.9-.6.45-1a17.17,17.17,0,0,0-7.59-3.93l-.15,0"/><path class="cls-8" d="M118.77,16a.6.6,0,0,0-.3,1.11l4.1,2.36a.59.59,0,0,0,.3.08.6.6,0,0,0,.3-1.11l-4.1-2.36a.59.59,0,0,0-.3-.08"/><path class="cls-5" d="M154.55,91.52v.07a.33.33,0,0,0,0,.15c0,.17,0,.47.08.84.09.76.27,1.89.57,3.25a41.83,41.83,0,0,0,1.3,4.62c.29.83.61,1.69,1,2.55s.77,1.71,1.21,2.56.92,1.67,1.44,2.45c.25.4.52.78.8,1.16s.56.74.84,1.1a23.46,23.46,0,0,0,1.77,2c.29.31.6.57.9.85s.6.52.89.75c.58.49,1.16.86,1.67,1.22s1,.61,1.39.84l1.27.65-1.44-.09c-.46-.05-1-.13-1.67-.23s-1.38-.26-2.16-.49c-.4-.1-.81-.22-1.23-.37s-.87-.28-1.3-.47a27.22,27.22,0,0,1-2.75-1.25c-.46-.25-.95-.5-1.41-.78s-.95-.56-1.41-.88c-.94-.61-1.85-1.29-2.75-2s-1.76-1.47-2.58-2.24-1.6-1.57-2.33-2.36a52.23,52.23,0,0,1-3.76-4.58c-1-1.41-1.83-2.66-2.38-3.57q-.41-.69-.64-1.11c-.07-.13-.14-.27-.18-.37S142.3,84,142.31,84c2.81-2.24,12.25,7.55,12.25,7.55"/><path class="cls-1" d="M146.25,134.35a9.94,9.94,0,0,0,9.91-9.91V108.62c-.52-12.09-12.39-16.36-12.39-7.85l2.48,33.58"/><path class="cls-9" d="M154.19,126.27a4,4,0,1,1-4-4,4,4,0,0,1,4,4"/><path class="cls-10" d="M150.89,122.62a2.07,2.07,0,1,0,2.07,2.07,2.07,2.07,0,0,0-2.07-2.07"/><path class="cls-8" d="M153.13,85h-.07a10.74,10.74,0,0,0-4.26,1.4l1,.75a9.28,9.28,0,0,1,3.3-1c.7-.08.73-1.15.07-1.15"/><path class="cls-8" d="M148.8,86.37a10.31,10.31,0,0,0-4.61,5.91.57.57,0,0,0,1.1.3,9.19,9.19,0,0,1,4.47-5.46l-1-.75"/><path class="cls-8" d="M153.74,89.87q-.42,0-.84,0c.47.45.86.83,1.15,1.11a8.91,8.91,0,0,1,2,.3l.16,0a.58.58,0,0,0,.14-1.12,10,10,0,0,0-2.61-.35"/><path class="cls-8" d="M152.91,89.9A10.78,10.78,0,0,0,145,94.63a.54.54,0,0,0,.51.83.56.56,0,0,0,.47-.26,9.47,9.47,0,0,1,7.75-4.2h.32c-.28-.28-.67-.67-1.15-1.11"/><path class="cls-8" d="M151.18,76a.57.57,0,0,0-.28.08,14,14,0,0,0-6.49,7.77,7.55,7.55,0,0,1,1.07.42,12.84,12.84,0,0,1,6-7.2.58.58,0,0,0-.3-1.06"/><path class="cls-8" d="M144.41,83.81a14.44,14.44,0,0,0-.71,6,.6.6,0,0,0,.62.55.48.48,0,0,0,.52-.55,13.59,13.59,0,0,1,.63-5.58,7.55,7.55,0,0,0-1.07-.42"/><path class="cls-6" d="M64.18,146.74c-.16,4.15,1.35,8.12,1.19,12.27,0,.77,1.16.76,1.19,0,.16-4.15-1.35-8.12-1.19-12.27C65.4,146,64.21,146,64.18,146.74Z"/><path class="cls-6" d="M61.15,136.9a5.33,5.33,0,0,0,.34,3.35,3.88,3.88,0,0,0,1,1.26,19.82,19.82,0,0,1,1.72,1.18c.53.56,1.37-.29.84-.84s-1.65-.91-2.21-1.7a3.86,3.86,0,0,1-.5-2.94C62.44,136.47,61.29,136.15,61.15,136.9Z"/><path class="cls-11" d="M68.81,93.22h0a14.27,14.27,0,0,0-7.38,2.37h0a2.54,2.54,0,0,0,0,4.3,14.27,14.27,0,0,0,7.38,2.37h0a15,15,0,0,0,8.41-3.06,1.8,1.8,0,0,0,0-2.92,15,15,0,0,0-8.41-3.06"/><path class="cls-11" d="M68.8,93.22h0a15,15,0,0,1,8.41,3.06,1.8,1.8,0,0,1,0,2.92,15,15,0,0,1-8.41,3.06h0a14.27,14.27,0,0,1-7.38-2.37,2.54,2.54,0,0,1,0-4.3h0a14.27,14.27,0,0,1,7.38-2.37h0m0-.4a14.66,14.66,0,0,0-7.6,2.43h0a2.94,2.94,0,0,0,0,5,14.66,14.66,0,0,0,7.6,2.43,15.43,15.43,0,0,0,8.65-3.13,2.19,2.19,0,0,0,0-3.57,15.43,15.43,0,0,0-8.65-3.13"/><path class="cls-6" d="M76.54,102.45c-1.9,3.57-6.15,3.56-9.68,3.43-.77,0-.76,1.16,0,1.19,4,.14,8.6-.06,10.71-4C77.93,102.38,76.9,101.77,76.54,102.45Z"/><path class="cls-6" d="M102.33,125.92a3,3,0,0,0-3-2.84,6.37,6.37,0,0,0-3.53,1.25A8.76,8.76,0,0,1,91.06,126c-3.13,0-5-2.9-8-2.95a3.09,3.09,0,0,0-3.31,2.86c-.06.76,1.13.76,1.19,0,.29-3.9,5.31,0,6.85.7a6.86,6.86,0,0,0,3.22.58,7.12,7.12,0,0,0,3.22-.58c1.48-.67,6.56-4.63,6.85-.7C101.19,126.67,102.38,126.68,102.33,125.92Z"/><path class="cls-6" d="M119.76,132.07c2,1.23,4,2.45,3.47,5.06-.3,1.61-1.3,2.16-1.9,3.61-.84,2-.38,4.3.14,6.36a27.36,27.36,0,0,1,.46,10.32c-.42,3.59-1,7.19-3.32,10.1-.47.59.37,1.44.84.84a18.3,18.3,0,0,0,3.45-9.17c.55-3.9.92-7.7-.06-11.56-.63-2.49-1.44-5.16.2-7.44.75-1,1.61-1.68,1.76-3,.32-2.91-2.3-4.76-4.44-6.11C119.71,130.63,119.11,131.66,119.76,132.07Z"/><path class="cls-6" d="M133.39,141.19a40,40,0,0,1-2.87,13.32c-.28.71.87,1,1.15.32a41,41,0,0,0,2.91-13.64C134.62,140.43,133.43,140.43,133.39,141.19Z"/><path class="cls-6" d="M137,146.47a19.71,19.71,0,0,1-3.17,9.52c-.42.64.61,1.24,1,.6a21,21,0,0,0,3.33-10.12C138.22,145.71,137,145.71,137,146.47Z"/><path class="cls-6" d="M51.72,143.6A15.43,15.43,0,0,0,54.6,154c.44.62,1.47,0,1-.6a14.4,14.4,0,0,1-2.72-9.83C53,142.83,51.78,142.84,51.72,143.6Z"/><path class="cls-6" d="M131.52,98.76A21,21,0,0,0,140,99c.75-.13.43-1.28-.32-1.15a19.45,19.45,0,0,1-7.83-.23C131.1,97.44,130.78,98.59,131.52,98.76Z"/><path class="cls-6" d="M132,99c1.65,1.16,3.35,2.33,5.43,2.39a.6.6,0,0,0,0-1.19c-1.85-.05-3.38-1.21-4.83-2.23C132,97.51,131.39,98.54,132,99Z"/><path class="cls-6" d="M56.63,98.64a3,3,0,0,1-2.23.67c-.76-.06-.76,1.13,0,1.19a4.21,4.21,0,0,0,3.07-1C58.06,99,57.22,98.16,56.63,98.64Z"/><path class="cls-6" d="M56.42,100a10.58,10.58,0,0,1-2.43,2.7c-.6.47.25,1.31.84.84a11.5,11.5,0,0,0,2.62-2.94C57.86,100,56.83,99.39,56.42,100Z"/><circle class="cls-12" cx="67.97" cy="97.45" r="2.01"/><path class="cls-11" d="M116.61,93.22h0a14.27,14.27,0,0,0-7.38,2.37,2.54,2.54,0,0,0,0,4.3l.06,0a14.23,14.23,0,0,0,7.33,2.33h0A14.28,14.28,0,0,0,124,99.88a2.54,2.54,0,0,0,0-4.3l.11-.17h0l-.11.17a14.27,14.27,0,0,0-7.38-2.37"/><path class="cls-11" d="M116.61,93.22h0A14.27,14.27,0,0,1,124,95.59l.11-.17.11-.17-.11.17-.11.17a2.54,2.54,0,0,1,0,4.3,14.28,14.28,0,0,1-7.38,2.37h0a14.23,14.23,0,0,1-7.33-2.33l-.06,0a2.54,2.54,0,0,1,0-4.3,14.27,14.27,0,0,1,7.38-2.37h0m0-.4a14.66,14.66,0,0,0-7.6,2.43,2.94,2.94,0,0,0,0,5l.06,0a13.09,13.09,0,0,0,15.14,0,2.94,2.94,0,0,0,0-5h0a14.66,14.66,0,0,0-7.6-2.43"/><circle class="cls-12" cx="116.43" cy="97.95" r="2.01"/><path class="cls-6" d="M111.92,105.28a20.24,20.24,0,0,0,8.43-.9.6.6,0,0,0-.32-1.15,18.9,18.9,0,0,1-7.79.9C111.49,104,111.16,105.18,111.92,105.28Z"/><path class="cls-6" d="M116.44,105.27c2.5-.17,4.65,1,7.07,1.31a17.31,17.31,0,0,0,6.34-.77.6.6,0,0,0-.32-1.15,14.61,14.61,0,0,1-7.78.3,15.59,15.59,0,0,0-5.31-.89C115.68,104.13,115.68,105.32,116.44,105.27Z"/><path class="cls-6" d="M83.88,99.65c-.36,5.44-.9,11.49-5.59,15.06-.6.46,0,1.49.6,1,5.08-3.86,5.79-10.14,6.18-16.08C85.12,98.88,83.93,98.88,83.88,99.65Z"/><path class="cls-6" d="M97.88,99.65c.39,5.95,1.1,12.22,6.18,16.08.61.46,1.2-.57.6-1-4.68-3.56-5.23-9.62-5.59-15.06C99,98.89,97.83,98.88,97.88,99.65Z"/><path class="cls-13" d="M106.38,97.45a7.81,7.81,0,0,1,.61-.8,14.69,14.69,0,0,1,3.38-2.89,13,13,0,0,1,1.8-.93,12.09,12.09,0,0,1,2.07-.69,12,12,0,0,1,2.26-.31,11.24,11.24,0,0,1,2.28.17c.19,0,.37.06.55.11l.54.15a10.25,10.25,0,0,1,1,.35,10.58,10.58,0,0,1,1.82.92,7,7,0,0,1,.78.52c.24.19.48.34.69.53a11.59,11.59,0,0,1,1.1,1,9.62,9.62,0,0,1,.77.86c.4.5.61.8.61.8s-.31-.2-.82-.58c-.25-.19-.58-.39-.93-.64s-.78-.48-1.23-.76c-.22-.14-.48-.25-.72-.38a8.18,8.18,0,0,0-.78-.38,15,15,0,0,0-1.73-.66,11.58,11.58,0,0,0-1.91-.42,12,12,0,0,0-2-.11,13.06,13.06,0,0,0-2,.23c-.33.05-.65.15-1,.22s-.63.17-.93.28c-.61.2-1.19.44-1.74.68s-1.05.5-1.52.76c-.93.51-1.68,1-2.2,1.35S106.38,97.45,106.38,97.45Z"/><path class="cls-13" d="M79,97.45s-.29-.22-.81-.58S77,96,76,95.52c-.46-.26-1-.5-1.52-.76s-1.13-.48-1.74-.68c-.3-.11-.62-.19-.93-.28s-.64-.16-1-.22a13.06,13.06,0,0,0-2-.23,12,12,0,0,0-2,.11,11.58,11.58,0,0,0-1.91.42,15,15,0,0,0-1.73.66,8.18,8.18,0,0,0-.78.38c-.25.13-.5.24-.72.38-.45.28-.88.51-1.23.76s-.69.44-.93.64c-.51.37-.82.58-.82.58s.21-.3.61-.8a9.62,9.62,0,0,1,.77-.86,11.59,11.59,0,0,1,1.1-1c.2-.19.45-.35.69-.53a7,7,0,0,1,.78-.52,10.58,10.58,0,0,1,1.82-.92,10.25,10.25,0,0,1,1-.35l.54-.15c.18,0,.37-.07.55-.11a11.24,11.24,0,0,1,2.28-.17,12,12,0,0,1,2.26.31,12.09,12.09,0,0,1,2.07.69,13,13,0,0,1,1.8.93,14.69,14.69,0,0,1,3.38,2.89A7.81,7.81,0,0,1,79,97.45Z"/><path class="cls-6" d="M71.76,163.79c1.27,4.17,2.72,8.37,6.35,11.08s8.57,4,13,4.49C100,180.43,108.31,176,111,167.25c.23-.73-.92-1-1.15-.32-2.67,8.61-11,12.46-19.54,11.13a28,28,0,0,1-10.91-3.72c-3.82-2.51-5.25-6.7-6.52-10.86C72.69,162.75,71.54,163.06,71.76,163.79Z"/><path class="cls-6" d="M144.79,103.71c2.22-1.5,5.05-2.56,6.8.19a8.66,8.66,0,0,1,.85,5.29c-.19,2.84-.55,5.47.73,8.1.32.65,1.29.08,1-.57-2.11-4.32,1.07-9.57-1.78-13.66-2.19-3.14-5.42-2.17-8.15-.33C143.62,103.14,144.18,104.12,144.79,103.71Z"/><path class="cls-6" d="M145.19,110.7c0,1.12.85,1.52,1.69,2,1.58,1,1.46,2.8,1.21,4.46-.1.71,1,1,1.09.3a7.76,7.76,0,0,0-.15-4,3.23,3.23,0,0,0-.92-1.3c-.45-.39-1.81-.82-1.79-1.52A.56.56,0,0,0,145.19,110.7Z"/><path class="cls-8" d="M64.83,48.33a.54.54,0,0,0-.31.11A83.28,83.28,0,0,0,50.65,60.72c-1.94,2.16-3.74,4.44-5.47,6.78C43,70.43,40.55,73.75,37,75a.6.6,0,1,0,.32,1.15c5.73-2,8.85-8.28,12.53-12.64a81.77,81.77,0,0,1,15.31-14,.63.63,0,0,0-.29-1.14"/><path class="cls-8" d="M41,77.13a.58.58,0,0,0-.57.41c-.92,2.74-2,5.45-3,8.16a16.4,16.4,0,0,1-6.2,8,.63.63,0,0,0,.29,1.14.53.53,0,0,0,.31-.11,17.24,17.24,0,0,0,6-6.88c1.43-3.19,2.58-6.66,3.69-10a.55.55,0,0,0-.57-.73"/></svg>