<svg id="Layer_1" data-name="Layer 1" xmlns="http://www.w3.org/2000/svg" viewBox="0 0 200 200"><defs><style>.cls-1{fill:#fcb686;}.cls-2{fill:#e7d1c0;}.cls-3{fill:#e5ab80;}.cls-4{fill:#fcee21;}.cls-5{fill:#c69c6d;}.cls-6{fill:#fff;}.cls-7{fill:#fce021;}</style></defs><title>trump</title><path class="cls-1" d="M161.88,99.53l1.54-14.21-.7,0a59.35,59.35,0,0,0,.39-6.77,58.76,58.76,0,0,0-117.52,0A59.36,59.36,0,0,0,46,85.35l-.7,0,1.54,14.21a13.92,13.92,0,0,0-9.5,15.21l2.6,17.83a13.93,13.93,0,0,0,12,11.76c1.7,8,7.41,27.07,23.8,32.52,1.19,5.64,17.59,13.25,29.51,13.25,11.41,0,26.59-7.6,27.78-13.25,16.39-5.45,22.1-24.57,23.8-32.52a13.93,13.93,0,0,0,12-11.76l2.6-17.83a13.92,13.92,0,0,0-9.5-15.21"/><path class="cls-2" d="M61,38.95c-.59.15-1.2.26-1.78.42-6.56,1.78-9.79,9.28-12.12,15.9-1.48,4.21-2.9,9.16-.57,12.94A58.57,58.57,0,0,1,61,38.95M107.19,14.7c-9.22,0-18.51,2.56-27,6.48C74.13,24,68,27.89,65.32,34.23l-.27.68A58.77,58.77,0,0,1,159,57l.36-.56a27.57,27.57,0,0,0,1.23-26.31c-2.42-4.84-6.45-8.93-11.43-10.61a23,23,0,0,0-7.44-1c-1.56,0-3.12.08-4.69.17s-3.14.17-4.71.17a29.76,29.76,0,0,1-4.15-.26c-3.36-.47-6.59-1.7-9.89-2.53a45.54,45.54,0,0,0-11.09-1.33"/><path class="cls-3" d="M104.35,19.83A58.53,58.53,0,0,0,65,34.91a7.28,7.28,0,0,1-1.78,3,5.41,5.41,0,0,1-2.29,1A58.57,58.57,0,0,0,46.5,68.2h0a9.47,9.47,0,0,0,3.95,3.39,15.39,15.39,0,0,0,6.88,1.51,33.87,33.87,0,0,0,12-2.73c5.62-2.2,11.31-4.95,17.26-4.95q.71,0,1.42.05c6.58.5,12.35,4.54,18.43,7.23a45,45,0,0,0,17.82,3.83,34.1,34.1,0,0,0,7.79-.86c1.5-.35,5.81-2,5.81-2,12.76-4.52,12-7.69,17.48-12.42A20.49,20.49,0,0,0,159,57a58.78,58.78,0,0,0-54.67-37.17"/><path class="cls-4" d="M110.08,59.49l0-.06h0c-.06-.09-.17-.24-.35-.48-.37-.46-1-1.21-1.93-2.15A58.67,58.67,0,0,0,99,49.5a68.37,68.37,0,0,0-15-7.68,72.71,72.71,0,0,0-9.37-2.73c-.82-.17-1.65-.35-2.48-.51l-2.53-.43-2.56-.34c.07-.07-1-.09-1-.11a3.46,3.46,0,0,0-.75,0,20.38,20.38,0,0,0-4.38.66,49,49,0,0,0-4.81,1.5,100.46,100.46,0,0,0-9.5,4.12c-6.14,3-11.77,6.28-16.54,9.17s-8.68,5.45-11.4,7.27-4.25,2.9-4.25,2.9S15.74,61.9,18,59.55s5.6-5.67,9.72-9.55,9-8.3,14.69-12.75a109.58,109.58,0,0,1,9.19-6.53,60.13,60.13,0,0,1,5.31-3,32.94,32.94,0,0,1,6.33-2.4,18.2,18.2,0,0,1,2-.39l.9-.12.35,0h.38l.19,0,3-.24,3-.13c1,0,2,0,3,0A88.8,88.8,0,0,1,88,25.21a87.66,87.66,0,0,1,20.71,5.57A81.8,81.8,0,0,1,122.6,38c1.64,1.07,2.92,2,3.84,2.73.46.36.83.66,1.09.89l.4.36.07.06Z"/><path class="cls-4" d="M122.82,76.22s0,0-.14-.16-.37-.32-.7-.58c-.66-.53-1.7-1.32-3.06-2.31-2.73-2-6.78-4.81-11.73-8-2.48-1.57-5.18-3.22-8.05-4.85s-5.9-3.27-9-4.78a94.78,94.78,0,0,0-9.32-4c-1.52-.55-3-1-4.31-1.37-.66-.18-1.28-.34-1.87-.49l-.81-.2-.2,0c.18-.07,0,0,0,0h0l-.1,0-.2,0-.79.13-.2,0-.16,0-.32,0-.64.09-1.38.24c-.92.17-1.84.35-2.76.55-1.84.4-3.68.87-5.51,1.4a93.44,93.44,0,0,0-10.65,3.83A91.88,91.88,0,0,0,33,66,47,47,0,0,0,22.39,76.16a15.91,15.91,0,0,0-2,3.66,9.66,9.66,0,0,0-.32,1.07l-.08.38-.06-.39a10,10,0,0,1-.08-1.16,17.14,17.14,0,0,1,.62-4.43,37.63,37.63,0,0,1,2.46-6.57,67,67,0,0,1,4.49-7.94A103.23,103.23,0,0,1,42.23,43.1a111.37,111.37,0,0,1,10.14-8.65q2.75-2.08,5.73-4c1-.65,2-1.28,3-1.9l1.55-.92,1.64-.92.69-.4.17-.1.09,0,0,0c.06,0-.07,0,.14-.06l.55-.29c.74-.4,1.47-.74,2.2-1.08,1.45-.65,2.88-1.22,4.29-1.71a69.79,69.79,0,0,1,8.13-2.24,115.37,115.37,0,0,1,14.85-2.1c4.68-.38,9.12-.53,13.28-.57s8.06,0,11.65.18c7.16.28,13.08.77,17.29,1.2,2.1.22,3.78.42,5,.58l1.4.21c.31,0,.63.13.58.11Z"/><path class="cls-4" d="M137.1,68.78l0,0a.73.73,0,0,0-.16-.12c-.18-.12-.47-.3-.88-.54-.82-.48-2.08-1.19-3.74-2.07-3.31-1.77-8.18-4.25-14.08-6.92-3-1.34-6.16-2.72-9.55-4.05s-7-2.63-10.55-3.74a82.19,82.19,0,0,0-10.46-2.58c-.81-.14-1.57-.25-2.28-.34l-1-.13-.24,0a.54.54,0,0,0-.31,0l-.85.22-6.77,1.72c-9,2.27-17.69,4.56-25.49,7.33A82.49,82.49,0,0,0,39.93,62.1a28.64,28.64,0,0,0-7.86,5.69,11.28,11.28,0,0,0-2.13,3.27,8.48,8.48,0,0,0-.62,3.49,13.79,13.79,0,0,0,2,6.25A28.24,28.24,0,0,0,34,84.59c.69.84,1.09,1.27,1.09,1.27s-.5-.29-1.42-.89a29.39,29.39,0,0,1-3.82-3,20.33,20.33,0,0,1-2.41-2.65,15,15,0,0,1-2.14-3.93,13.36,13.36,0,0,1-.73-5.4,17.31,17.31,0,0,1,1.54-5.88,36.4,36.4,0,0,1,7.53-10.3,93.69,93.69,0,0,1,10.25-8.76c7.37-5.52,15.55-10.6,23.56-15.52l5.94-3.65,1.78-1.11c.38-.24.74-.44,1.11-.66l1.1-.61c1.47-.8,2.91-1.48,4.32-2.1a97.19,97.19,0,0,1,16-5.19c5-1.21,9.83-2.08,14.34-2.78s8.74-1.21,12.63-1.61c7.79-.8,14.58-3,18.85-1.33,3.5,1.41,10.45,11.53,10.45,11.53Z"/><path class="cls-4" d="M146.46,46.79c-3.51,2-4.33,8.64-3.87,13.88s2.27,10,4,14.62,3.51,9.44,3.86,14.7c.52,7.76-1.95,16.59,1.25,22.85,1.35,2.64,3.6,4.24,5.86,4.18a4,4,0,0,0,3.15-1.6c1.69-2.21,1.57-6,1.55-9.31A51.54,51.54,0,0,1,164,92.27c.65-2.34,1.5-4.56,2.14-6.91,1.7-6.27,1.8-13.17,1.87-19.91.07-6-.13-12.93-3.32-16.78-2.61-3.14-6.53-1.59-9.72-2.93C152.92,44.91,152.62,43.3,146.46,46.79Z"/><path class="cls-4" d="M46.52,67.22c.53,4-2.88,7.26-4.4,11-1.85,4.49-.86,9.63.7,14.23s3.67,9.1,4.06,13.94c.27,3.35-.29,6.84.86,10s5.06,5.7,7.86,3.84c2.2-1.46,2.36-4.6,2-7.22-1.1-8.76-5-17.74-2.13-26.07,1.32-3.79,4-7.18,4.25-11.19a9.45,9.45,0,0,0-13.28-9.18Z"/><path class="cls-4" d="M136.54,74.94c14.11-4.16,13.4-7.52,19.62-12.23a22.29,22.29,0,0,0,4.62-4.83,27.93,27.93,0,0,0,2.55-27.49,22.19,22.19,0,0,0-12-11.62c-7.2-2.66-15.28-.6-22.84-1.93-3.64-.64-7.1-2.07-10.66-3.08-13.67-3.89-28.5-1.53-41.72,3.7-6.75,2.67-13.63,6.49-16.82,13-.66,1.35-1.21,2.87-2.41,3.77s-3,1-4.5,1.33c-7.23,1.57-11.09,9.28-13.94,16.12C36.65,56,34.88,61.14,37.25,65.2a10.17,10.17,0,0,0,4.15,3.72c6.26,3.28,13.91,1.76,20.62-.45s13.55-5.1,20.58-4.3,13.25,5.3,19.75,8.39c8.31,3.94,18.72,5.9,27.77,4.24C131.76,76.51,136.54,74.94,136.54,74.94Z"/><path class="cls-5" d="M87.7,100.28a39.8,39.8,0,0,1-14.23,2c-1,0-1,1.46,0,1.5a41,41,0,0,0,14.63-2.05C89,101.42,88.62,100,87.7,100.28Z"/><path class="cls-5" d="M86.22,102.68a24.73,24.73,0,0,0-6,4.29c-.7.67.36,1.73,1.06,1.06A23.4,23.4,0,0,1,87,104C87.84,103.54,87.08,102.24,86.22,102.68Z"/><path class="cls-5" d="M98.63,109.6A59.51,59.51,0,0,1,94.37,124c-.91,2.23-1.51,4.8.66,6.43.77.58,1.52-.72.76-1.3-2.36-1.77,1.22-7.34,1.94-9.35a49.85,49.85,0,0,0,2.36-9.77C100.21,109.06,98.77,108.65,98.63,109.6Z"/><path class="cls-5" d="M92.7,173.19a7.15,7.15,0,0,0,12.91,5.39c.57-.78-.73-1.53-1.3-.76a5.65,5.65,0,0,1-10.16-4.23C94.29,172.64,92.85,172.23,92.7,173.19Z"/><path class="cls-5" d="M95.44,93.32c-1.07-5.27-6.49-6.87-11.1-7.81-.94-.19-1.35,1.25-.4,1.45C88,87.78,93,89,94,93.72,94.18,94.66,95.63,94.26,95.44,93.32Z"/><path class="cls-5" d="M108.83,110a50.21,50.21,0,0,0,2.36,9.77c.71,2,4.28,7.59,1.94,9.35-.76.57,0,1.88.76,1.3,2.17-1.63,1.58-4.2.66-6.43a59.51,59.51,0,0,1-4.27-14.39C110.14,108.65,108.7,109.06,108.83,110Z"/><path class="cls-5" d="M115.77,173.59a5.65,5.65,0,0,1-10.16,4.23c-.57-.77-1.87,0-1.3.76a7.15,7.15,0,0,0,12.91-5.39C117.06,172.24,115.62,172.64,115.77,173.59Z"/><path class="cls-5" d="M114.72,146c-2.48-1-2.7-4.5-5.16-5.69a4.79,4.79,0,0,0-5.39,1l.91-.12c-1.36-.68-3.21-1.36-4.72-.8-2.59,1-2.68,4.61-5.17,5.65-.88.37-.49,1.82.4,1.45a7,7,0,0,0,3.27-3.31c.78-1.28,1.53-2.44,3.19-2.41a5.78,5.78,0,0,1,2.27.72.78.78,0,0,0,.91-.12c4.09-3.76,5.95,3.8,9.09,5.12C115.21,147.82,115.6,146.37,114.72,146Z"/><path class="cls-5" d="M115.89,149.05a11.47,11.47,0,0,0-4.62,3.19c-1.85,1.93-4.66,5.58-7.77,4.38-1.82-.7-3.3-2.74-4.6-4.11A12,12,0,0,0,94,149.05c-.92-.31-1.31,1.14-.4,1.45,4.09,1.4,5.94,7.15,10.3,7.75,5.54.77,7.79-6.19,12.36-7.75C117.19,150.19,116.8,148.74,115.89,149.05Z"/><path class="cls-6" d="M90.53,92.9a1.64,1.64,0,0,1,0,2.64c-2.1,1.56-5.61,3.93-7.56,3.93s-6.08-2.28-8.69-3.84a1.64,1.64,0,0,1,0-2.82C76.89,91.25,81.06,89,83,89S88.44,91.34,90.53,92.9Z"/><circle cx="82.85" cy="94.4" r="2.16"/><path class="cls-5" d="M121.81,101.72a41,41,0,0,0,14.63,2.05c1,0,1-1.54,0-1.5a39.8,39.8,0,0,1-14.23-2C121.29,100,120.9,101.42,121.81,101.72Z"/><path class="cls-5" d="M122.94,104a23.4,23.4,0,0,1,5.74,4.06c.7.67,1.76-.39,1.06-1.06a24.73,24.73,0,0,0-6-4.29C122.83,102.24,122.07,103.54,122.94,104Z"/><path class="cls-5" d="M115.92,93.72c1-4.72,6-5.93,10.05-6.76.95-.19.55-1.64-.4-1.45-4.61.94-10,2.54-11.1,7.81C114.28,94.26,115.73,94.66,115.92,93.72Z"/><path class="cls-6" d="M119.38,92.9a1.64,1.64,0,0,0,0,2.64c2.1,1.56,5.61,3.93,7.56,3.93s6.08-2.28,8.69-3.84a1.64,1.64,0,0,0,0-2.82C133,91.25,128.85,89,126.94,89S121.47,91.34,119.38,92.9Z"/><circle cx="127.06" cy="94.4" r="2.16"/><path class="cls-5" d="M110.08,148.88l1.14-.12a.46.46,0,0,0,.44-.44.44.44,0,0,0-.44-.44l-1.14.12a.45.45,0,0,0-.44.44A.44.44,0,0,0,110.08,148.88Z"/><path class="cls-5" d="M109.1,149l1-.08a.45.45,0,0,0,.44-.44.44.44,0,0,0-.44-.44l-1,.08C108.54,148.11,108.54,149,109.1,149Z"/><path class="cls-5" d="M103.75,149.1c1.79,0,3.57,0,5.35-.15.56,0,.57-.92,0-.88-1.78.11-3.57.14-5.35.15A.44.44,0,0,0,103.75,149.1Z"/><path class="cls-5" d="M98.69,149.1h2.87a.44.44,0,0,0,0-.88H98.69A.44.44,0,0,0,98.69,149.1Z"/><path class="cls-4" d="M91.17,81.52l-.36.15c-.24.09-.58.21-1,.34a24.38,24.38,0,0,1-3.52.76c-.72.11-1.48.19-2.29.25a20.08,20.08,0,0,1-2.49.07c-.42,0-.86-.06-1.28-.09l-.64-.07L79,82.88l-.6,0c-.19,0-.41,0-.55,0h-.35l.11,0h0l-.17,0-.68.18c-.33.12-.65.21-1.08.41s-.81.36-1.21.56c-.8.4-1.62.81-2.39,1.23-1.55.84-3,1.67-4.24,2.4l-4.14,2.45-.32-.38.9-1c.29-.31.64-.69,1.06-1.11s.88-.9,1.4-1.41,1.09-1.05,1.7-1.63,1.28-1.16,2-1.76,1.43-1.22,2.24-1.79c.4-.29.81-.59,1.25-.87a15.25,15.25,0,0,1,1.49-.87l.67-.32.16-.08.34-.11L77,78.6c.32-.11.57-.15.86-.23s.55-.13.81-.18a14.86,14.86,0,0,1,3-.32,14.24,14.24,0,0,1,2.68.29c.42.08.82.18,1.21.27s.76.21,1.12.32A17.85,17.85,0,0,1,90,80.22c.4.23.71.43.92.57l.32.23Z"/><path class="cls-4" d="M118.68,81l.32-.23c.21-.15.52-.34.92-.57a17.85,17.85,0,0,1,3.38-1.45c.36-.12.73-.21,1.12-.32s.8-.19,1.21-.27a14.24,14.24,0,0,1,2.68-.29,14.86,14.86,0,0,1,3,.32c.25,0,.53.11.81.18s.53.12.86.23l.46.15.34.11.16.08.67.32a15.24,15.24,0,0,1,1.49.87c.44.28.85.57,1.25.87.81.58,1.54,1.2,2.24,1.79s1.36,1.18,2,1.76,1.18,1.12,1.7,1.63,1,1,1.4,1.41.77.8,1.06,1.11l.9,1-.32.38-4.14-2.45c-1.24-.73-2.69-1.56-4.24-2.4-.78-.42-1.59-.83-2.39-1.23-.4-.2-.81-.39-1.21-.56s-.75-.28-1.08-.41l-.68-.18-.17,0h0l.11,0h-.35c-.14,0-.37,0-.55,0l-.6,0-.62.06-.64.07c-.42,0-.86.08-1.28.09a20.08,20.08,0,0,1-2.49-.07c-.8-.06-1.57-.14-2.29-.25a24.38,24.38,0,0,1-3.52-.76c-.43-.14-.78-.25-1-.34l-.36-.15Z"/><path class="cls-5" d="M42.78,109.7a3.69,3.69,0,0,0-1.92,1.55,6.35,6.35,0,0,0-.81,3.42,15.89,15.89,0,0,0,.32,3,82.84,82.84,0,0,0,4.2,14.79.75.75,0,0,0,1.38-.58l0-.06a82.5,82.5,0,0,1-4.08-14.43,14.42,14.42,0,0,1-.29-2.71,4.89,4.89,0,0,1,.58-2.62,2.18,2.18,0,0,1,1.15-.93.75.75,0,1,0-.5-1.41Z"/><path class="cls-5" d="M49.72,120.49c-1.58-.14-2.39,1.65-1.88,3,.42,1.11,1.46,1.54,2.26,2.3a2.85,2.85,0,0,1-.56,4.64.75.75,0,0,0,.76,1.3,4.4,4.4,0,0,0,2.25-4.25,4,4,0,0,0-.72-2,5.57,5.57,0,0,0-1.09-1.07l-.86-.66q-1.15-.67-.16-1.74C50.68,122.07,50.67,120.57,49.72,120.49Z"/><path class="cls-5" d="M166.62,111.11a2.18,2.18,0,0,1,1.15.93,4.89,4.89,0,0,1,.58,2.62,14.42,14.42,0,0,1-.29,2.71,90.85,90.85,0,0,1-2.69,10.52c-.41,1.27-.77,2.27-1,2.95l-.3.77-.08.2,0,.06a.75.75,0,0,0,1.38.58,82.84,82.84,0,0,0,4.2-14.79,15.9,15.9,0,0,0,.32-3,6.35,6.35,0,0,0-.81-3.42,3.69,3.69,0,0,0-1.92-1.55.75.75,0,0,0-.5,1.41Z"/><path class="cls-5" d="M160.19,122q1,1.08-.16,1.74l-.86.66a5.57,5.57,0,0,0-1.09,1.07,4,4,0,0,0-.72,2,4.4,4.4,0,0,0,2.25,4.25.75.75,0,0,0,.76-1.3,2.85,2.85,0,0,1-.56-4.64c.8-.76,1.85-1.2,2.26-2.3.51-1.35-.3-3.13-1.88-3C159.24,120.57,159.23,122.07,160.19,122Z"/><path class="cls-5" d="M98.76,129.74c.38-2.94,3.26-2.52,4.5-.79.28.4.44.88.75,1.25a2.29,2.29,0,0,0,1.87,1,2.09,2.09,0,0,0,1.56-.92,5.64,5.64,0,0,0,.45-.8l.32-.69q.38-1.24,1.56.31c-.31.92,1.14,1.31,1.45.4.52-1.54-.28-3.33-2.15-3.2a2.34,2.34,0,0,0-1.57.82c-.87.93-1,3.17-2.79,1.3-1.28-1.31-1.91-2.71-4.1-2.45a3.93,3.93,0,0,0-3.35,3.72C97.14,130.69,98.64,130.68,98.76,129.74Z"/><path class="cls-5" d="M86,134.15c-1.43,4.49-3.14,9-4.17,13.58-.77,3.47-.86,6.9.8,10.12.44.86,1.74.1,1.3-.76-1.86-3.61-1.11-7.59,0-11.33s2.36-7.48,3.55-11.22C87.71,133.62,86.26,133.23,86,134.15Z"/><path class="cls-5" d="M119.48,125.08l5.24,16.42c1.57,4.93,3.86,10.62,1.3,15.59-.44.86.85,1.62,1.3.76,2.32-4.51,1.16-9.42-.28-14-2-6.39-4.07-12.76-6.1-19.14C120.63,123.76,119.18,124.15,119.48,125.08Z"/><path class="cls-5" d="M151.84,138.82A21.29,21.29,0,0,1,149.47,151c-.45.85.85,1.61,1.3.76a22.73,22.73,0,0,0,2.57-12.92C153.25,137.87,151.75,137.86,151.84,138.82Z"/><path class="cls-5" d="M56.57,138.82a22.73,22.73,0,0,0,2.57,12.92c.45.85,1.74.1,1.3-.76a21.3,21.3,0,0,1-2.36-12.16C58.16,137.86,56.66,137.87,56.57,138.82Z"/><path class="cls-7" d="M147.2,69.66c5-1.32,5.87,5.29,6,8.66,0,1,1.54,1,1.5,0-.1-2.73-.24-5.76-2-8a5.64,5.64,0,0,0-5.86-2.12A.75.75,0,0,0,147.2,69.66Z"/><path class="cls-7" d="M152.67,64.79a15.9,15.9,0,0,1,7,19.26c-.34.91,1.11,1.3,1.45.4a17.4,17.4,0,0,0-7.7-21A.75.75,0,0,0,152.67,64.79Z"/><path class="cls-7" d="M157.79,60.66c2.1.61,2.9,2.33,3.5,4.26.42,1.36,1.48,2.32,1.33,3.82-.1,1,1.41,1,1.5,0a3.87,3.87,0,0,0-.43-2.37,30.09,30.09,0,0,1-1.4-3.27,6.31,6.31,0,0,0-4.1-3.88A.75.75,0,0,0,157.79,60.66Z"/><path class="cls-7" d="M135.66,64.62c-4.27,2.19-8.67,4.28-13.6,3.43-4.23-.74-8.35-2.7-12.29-4.35-8-3.34-15.91-7.06-24.33-9.24-7.68-2-15.92-2.76-23.67-.74-3.95,1-7.56,3.17-11.57,3.94a8.5,8.5,0,0,1-6.38-.9c-2.16-1.38-3.84-3.88-2.63-6.44.41-.87-.89-1.63-1.3-.76-2.1,4.47,2,9,6.35,9.73,3.3.57,6.68-.72,9.69-1.92a42.51,42.51,0,0,1,11.79-3.16c16.19-1.55,31,6.77,45.55,12.52,3.87,1.53,8,3.28,12.22,3,3.91-.25,7.51-2.08,10.93-3.83C137.28,65.47,136.52,64.18,135.66,64.62Z"/><path class="cls-7" d="M135.46,55.72c-6.12,6.14-14.41,6.08-21.7,2.19A115.83,115.83,0,0,0,93.5,49.1c-3.78-1.18-7.57-2.36-11.4-3.37a115.85,115.85,0,0,0-11.8-2.16C66.42,43,62,41.73,60,38c-2.29-4.39,1.65-9.15,6.31-8.58,1,.12.95-1.38,0-1.5-4.93-.61-9.53,4-8.31,9,1.62,6.55,9.25,7.77,14.84,8.52,8.2,1.1,16.27,3.72,24.1,6.38a73.74,73.74,0,0,1,11.33,4.78c3.09,1.66,6.06,3.61,9.41,4.75a18.36,18.36,0,0,0,18.83-4.54A.75.75,0,0,0,135.46,55.72Z"/><path class="cls-7" d="M141.48,32.24c-.12,6.4-5.54,11.17-11.45,12.61-6.93,1.69-14.29-.27-21-2.18a105.37,105.37,0,0,1-18.91-7.06c-3.07-1.57-6.36-4.45-4.2-8.19,1.84-3.19,5.82-3.9,9.13-4.51.95-.18.55-1.62-.4-1.45-3.47.64-7.26,1.44-9.5,4.43a6.22,6.22,0,0,0-.34,7.41c1.88,2.76,5.41,4.06,8.35,5.31A132.2,132.2,0,0,0,106,43.32c8,2.48,17.34,5.26,25.66,2.64,6.06-1.91,11.2-7.13,11.32-13.72A.75.75,0,0,0,141.48,32.24Z"/><path class="cls-7" d="M139.27,19.32c-3.63,2.76-7.77,5.21-12.39,5.73a11.13,11.13,0,0,1-7.11-1.26c-1.68-1.07-2.83-3.19-1.08-4.86a9.24,9.24,0,0,1,3-1.67c.89-.35.5-1.8-.4-1.45-2.07.82-4.65,2-5.05,4.46-.42,2.64,1.92,4.61,4.12,5.5,6.8,2.75,14.28-1.09,19.63-5.15C140.79,20,140,18.73,139.27,19.32Z"/><path class="cls-7" d="M48.44,71.25a14.14,14.14,0,0,0-2.7,13.23.75.75,0,0,0,1.45-.4,12.57,12.57,0,0,1,2.31-11.77C50.11,71.57,49.06,70.5,48.44,71.25Z"/><path class="cls-7" d="M54.88,71.67a16.12,16.12,0,0,0-4.4,17.22c.32.91,1.76.52,1.45-.4a14.66,14.66,0,0,1,4-15.76C56.65,72.08,55.59,71,54.88,71.67Z"/><path class="cls-5" d="M70.48,94.24l-4.67.63c-.74.1-.75,1.29,0,1.19l4.67-.63C71.23,95.33,71.24,94.14,70.48,94.24Z"/><path class="cls-5" d="M70,95.84l-2.33.68A.59.59,0,0,0,68,97.66L70.29,97A.59.59,0,0,0,70,95.84Z"/><path class="cls-5" d="M138.61,94.57l3.7-.83c.74-.17.43-1.31-.32-1.14l-3.7.83C137.55,93.6,137.86,94.74,138.61,94.57Z"/><path class="cls-5" d="M139,96.63l1.33.34a.59.59,0,0,0,.32-1.14l-1.33-.34A.59.59,0,0,0,139,96.63Z"/><path class="cls-5" d="M88.47,123.5c-2.61,2.09-6.16,4.15-7.64,7.26-.33.69.7,1.29,1,.6,1.42-3,5-5,7.46-7C89.9,123.86,89.05,123,88.47,123.5Z"/><path class="cls-5" d="M120.87,121.57a8.3,8.3,0,0,1,3.36,3.87c.3.7,1.32.09,1-.6a9.36,9.36,0,0,0-3.79-4.29A.59.59,0,0,0,120.87,121.57Z"/><path class="cls-4" d="M79.77,83l-.64.08-1.68.18c-1.38.14-3.23.3-5.08.39-.93,0-1.85.08-2.72.08-.44,0-.86,0-1.26,0s-.77,0-1.13-.06-.66,0-.95-.1-.52-.08-.72-.13L65,83.25h.62c.2,0,.43-.06.7-.1s.57-.12.9-.19.68-.18,1.05-.28.76-.23,1.16-.36c.8-.26,1.65-.56,2.49-.88,1.69-.64,3.35-1.33,4.59-1.87L78,78.91l.56-.25Z"/><path class="cls-4" d="M136.25,80.25l.34.18.94.47a30.35,30.35,0,0,0,3,1.25c.55.2,1.11.37,1.64.51.27.08.52.12.77.18s.48.08.7.11a5,5,0,0,0,.6,0,2.37,2.37,0,0,0,.47,0l.41,0-.38.18a2.52,2.52,0,0,1-.45.18,5.39,5.39,0,0,1-.61.18c-.23,0-.48.12-.74.16s-.55.09-.84.12c-.58.07-1.21.11-1.84.11a32.66,32.66,0,0,1-3.45-.13l-1.14-.12-.45-.06Z"/></svg>