<?xml version="1.0" encoding="utf-8"?>
<!-- Generator: Adobe Illustrator 20.1.0, SVG Export Plug-In . SVG Version: 6.00 Build 0)  -->
<svg version="1.1" id="Layer_1" xmlns="http://www.w3.org/2000/svg" xmlns:xlink="http://www.w3.org/1999/xlink" x="0px" y="0px"
	 viewBox="0 0 826.8 116.9" style="enable-background:new 0 0 826.8 116.9;" xml:space="preserve">
<style type="text/css">
	.st0{fill:#FFFFFF;}
	.st1{fill:#BB112E;}
</style>
<title>ttn_logo_mock</title>
<g id="Layer_2">
	<g id="face">
		<path class="st0" d="M17.3,20.6H0V6.5h50.8v14.1H33.4v44H17.3V20.6z"/>
		<path class="st0" d="M58.3,6.5h16.1v58.1H58.3V6.5z"/>
		<path class="st0" d="M83.1,35.7v-0.2c0-16.9,12.9-30.2,30.5-30.2c11.9,0,19.5,5,24.6,12l-12.1,9.4c-3.3-4-7.2-6.7-12.7-6.7
			c-8.1,0-13.8,7-13.8,15.4v0.2c0,8.7,5.7,15.5,13.8,15.5c6.1,0,9.6-2.8,13.1-7l12.1,8.6c-5.5,7.5-12.9,13.1-25.6,13.1
			c-16.3,0.3-29.7-12.7-30-29C83.1,36.4,83.1,36.1,83.1,35.7z"/>
		<path class="st0" d="M143,31.8h27.2v13.8H143V31.8z"/>
		<path class="st0" d="M186,20.6h-17.4V6.5h50.9v14.1h-17.4v44H186V20.6z"/>
		<path class="st0" d="M239.1,6.1h15.5l24.7,58.5h-17.2L258,54.2h-22.5l-4.1,10.4h-16.8L239.1,6.1z M253.2,41.6l-6.5-16.4l-6.6,16.4
			L253.2,41.6z"/>
		<path class="st0" d="M279.4,35.7v-0.2c0-16.9,12.9-30.2,30.5-30.2c11.9,0,19.5,5,24.6,12l-12.1,9.4c-3.3-4.1-7.1-6.8-12.7-6.8
			c-8.1,0-13.9,7-13.9,15.4v0.2c0,8.7,5.7,15.5,13.9,15.5c6.1,0,9.6-2.8,13.1-7l12.1,8.6c-5.5,7.5-12.9,13.1-25.6,13.1
			C293,66,279.6,53,279.4,36.7C279.4,36.4,279.4,36.1,279.4,35.7z"/>
		<path class="st0" d="M370,2.2h28.9L445,61.4V2.2h30.7v111.9h-27l-48-61.4v61.4H370V2.2z"/>
		<path class="st0" d="M491.8,58.5v-0.3c0-32.1,25.9-58.2,60.4-58.2s60.1,25.7,60.1,57.9v0.3c0,32.1-25.9,58.2-60.4,58.2
			S491.8,90.7,491.8,58.5z M580.6,58.5v-0.3c0-16.3-11.5-30.2-28.6-30.2s-28.5,13.8-28.5,29.9v0.3c0,16.2,11.7,30.2,28.8,30.2
			C569.2,88.4,580.6,74.7,580.6,58.5L580.6,58.5z"/>
		<path class="st0" d="M628.4,2.2h48.1c28.1,0,46.4,14.6,46.4,39.2v0.3c0,26.5-20.3,40.5-48,40.5h-15.5v32h-31L628.4,2.2z
			 M674.3,57.9c10.9,0,17.7-5.9,17.7-14.7v-0.3c0-9.6-6.9-14.5-17.9-14.5h-14.7v29.6H674.3z"/>
		<path class="st0" d="M736,2.2h90v26.2h-59.3v17.1h53.7V70h-53.7v17.8h60.1v26.4H736V2.2z"/>
		<polygon class="st1" points="30.5,78.8 35.2,93.3 50.4,93.3 38.1,102.3 42.8,116.8 30.5,107.9 18.3,116.9 23,102.3 10.7,93.3 
			25.9,93.3 		"/>
		<polygon class="st1" points="87.9,78.8 92.5,93.3 107.7,93.3 95.4,102.3 100.1,116.8 87.9,107.9 75.6,116.9 80.3,102.3 68,93.3 
			83.2,93.3 		"/>
		<polygon class="st1" points="145.2,78.8 149.9,93.3 165,93.3 152.8,102.3 157.4,116.8 145.2,107.9 132.9,116.9 137.6,102.3 
			125.3,93.3 140.5,93.3 		"/>
		<polygon class="st1" points="202.5,78.8 207.2,93.3 222.4,93.3 210.1,102.3 214.8,116.8 202.5,107.9 190.2,116.9 194.9,102.3 
			182.6,93.3 197.8,93.3 		"/>
		<polygon class="st1" points="259.8,78.8 264.5,93.3 279.7,93.3 267.4,102.3 272.1,116.8 259.8,107.9 247.6,116.9 252.2,102.3 
			240,93.3 255.1,93.3 		"/>
		<polygon class="st1" points="317.1,78.8 321.8,93.3 337,93.3 324.7,102.3 329.4,116.8 317.1,107.9 304.9,116.9 309.6,102.3 
			297.3,93.3 312.5,93.3 		"/>
	</g>
</g>
</svg>
